<svg width="30" height="29" viewBox="0 0 30 29" fill="none" xmlns="http://www.w3.org/2000/svg">
<path fill-rule="evenodd" clip-rule="evenodd" d="M25.3145 0H4.81055C2.46562 0 0.5625 1.90312 0.5625 4.24805V24.752C0.5625 27.0969 2.46562 29 4.81055 29H25.3145C27.6594 29 29.5625 27.0969 29.5625 24.752V4.24805C29.5625 1.90312 27.6594 0 25.3145 0ZM7.41602 14.5566C7.41602 18.7706 10.8485 22.2031 15.0625 22.2031C19.2765 22.2031 22.709 18.7706 22.709 14.5566C22.709 10.3425 19.2765 6.91016 15.0625 6.91016C10.8485 6.91016 7.41602 10.3425 7.41602 14.5566ZM24.4082 6.91016C23.4736 6.91016 22.709 6.14551 22.709 5.21094C22.709 4.27637 23.4736 3.51172 24.4082 3.51172C25.3428 3.51172 26.1074 4.27637 26.1074 5.21094C26.1074 6.14551 25.3428 6.91016 24.4082 6.91016ZM9.11523 14.5566C9.11523 11.2771 11.783 8.60938 15.0625 8.60938C18.342 8.60938 21.0098 11.2771 21.0098 14.5566C21.0098 17.8361 18.342 20.5039 15.0625 20.5039C11.783 20.5039 9.11523 17.8361 9.11523 14.5566Z" fill="#2F2734"/>
</svg>
