<svg width="29" height="29" viewBox="0 0 29 29" fill="none" xmlns="http://www.w3.org/2000/svg">
<path fill-rule="evenodd" clip-rule="evenodd" d="M5.4375 0H23.5625C26.5662 0 29 2.43377 29 5.4375V23.5625C29 26.5662 26.5662 29 23.5625 29H5.4375C2.43377 29 0 26.5662 0 23.5625V5.4375C0 2.43377 2.43377 0 5.4375 0ZM20.1113 15.6176H22.825L23.1942 12.2335H20.1113L20.1169 10.334C20.1169 9.43054 20.2016 8.94758 21.4977 8.94758H23.4574V5.57689H20.0834C16.754 5.57689 15.5806 7.25443 15.5795 10.0797V12.2346H13.8216V15.6176H15.5795V25.6605H20.1113V15.6176Z" fill="#2F2734"/>
</svg>
