<svg width="29" height="29" viewBox="0 0 29 29" fill="none" xmlns="http://www.w3.org/2000/svg">
<rect width="29" height="29" rx="5" fill="#2F2734"/>
<path d="M6 14.5C6 9.8131 9.8131 6 14.5 6C16.3929 6 18.1845 6.609 19.6813 7.7612L17.706 10.3271C16.7806 9.61469 15.6719 9.2381 14.5 9.2381C11.5986 9.2381 9.2381 11.5986 9.2381 14.5C9.2381 17.4014 11.5986 19.7619 14.5 19.7619C16.8369 19.7619 18.8227 18.2309 19.5071 16.119H14.5V12.881H23V14.5C23 19.1869 19.1869 23 14.5 23C9.8131 23 6 19.1869 6 14.5Z" fill="white"/>
</svg>
