<svg width="352" height="89" viewBox="0 0 352 89" fill="none" xmlns="http://www.w3.org/2000/svg">
<path d="M112.237 74.9849C110.464 74.9849 109.051 74.5322 108 73.6269L108.494 72.6763C109.057 73.1289 109.63 73.4508 110.214 73.642C110.798 73.8331 111.478 73.9287 112.253 73.9287C113.166 73.9287 113.867 73.7627 114.355 73.4307C114.855 73.0887 115.104 72.6109 115.104 71.9973C115.104 71.6351 114.982 71.3434 114.738 71.1221C114.504 70.8907 114.191 70.7096 113.798 70.5789C113.416 70.4481 112.901 70.3123 112.253 70.1715C111.382 69.9904 110.665 69.7942 110.103 69.583C109.54 69.3717 109.083 69.07 108.733 68.6776C108.382 68.2753 108.207 67.7522 108.207 67.1084C108.207 66.4947 108.377 65.9566 108.717 65.4938C109.057 65.021 109.534 64.6539 110.15 64.3923C110.777 64.1308 111.504 64 112.333 64C113.118 64 113.851 64.1157 114.531 64.3471C115.21 64.5784 115.784 64.9154 116.251 65.358L115.741 66.3086C115.21 65.8761 114.669 65.5592 114.117 65.358C113.575 65.1568 112.98 65.0562 112.333 65.0562C111.451 65.0562 110.761 65.2373 110.262 65.5995C109.763 65.9515 109.513 66.4394 109.513 67.0631C109.513 67.6063 109.731 68.0137 110.166 68.2853C110.602 68.5569 111.271 68.7933 112.173 68.9945C113.15 69.2158 113.915 69.422 114.467 69.6132C115.03 69.7942 115.497 70.0759 115.869 70.4582C116.24 70.8304 116.426 71.3283 116.426 71.952C116.426 72.5556 116.256 73.0887 115.916 73.5514C115.577 74.0041 115.088 74.3562 114.451 74.6077C113.824 74.8592 113.086 74.9849 112.237 74.9849Z" fill="#2C2C2C"/>
<path d="M123.34 64.1207H127.864C129.032 64.1207 129.94 64.3873 130.587 64.9204C131.246 65.4536 131.575 66.1879 131.575 67.1235C131.575 68.059 131.246 68.7984 130.587 69.3416C129.929 69.8747 129.021 70.1413 127.864 70.1413H124.646V74.8642H123.34V64.1207ZM127.752 69.1152C128.591 69.1152 129.223 68.9442 129.647 68.6022C130.072 68.2602 130.285 67.7673 130.285 67.1235C130.285 66.4797 130.072 65.9918 129.647 65.6598C129.223 65.3178 128.591 65.1468 127.752 65.1468H124.646V69.1152H127.752Z" fill="#2C2C2C"/>
<path d="M138.494 74.8642V64.1207H139.8V74.8642H138.494Z" fill="#2C2C2C"/>
<path d="M155.231 64.1207H156.474V74.8642H155.454L148.605 66.2181V74.8642H147.379V64.1207H148.382L155.231 72.7668V64.1207Z" fill="#2C2C2C"/>
<path d="M164.041 74.8642V64.1207H171.209V65.1468H165.332V68.8889H170.891V69.93H165.332V73.8381H171.209V74.8642H164.041Z" fill="#2C2C2C"/>
<path d="M194.315 72.6914C194.868 73.2647 195.611 73.7526 196.545 74.155L195.845 75C194.963 74.6177 194.22 74.1399 193.615 73.5665C193.158 74.0192 192.643 74.3663 192.07 74.6077C191.496 74.8491 190.875 74.9698 190.206 74.9698C189.484 74.9698 188.847 74.8541 188.295 74.6228C187.742 74.3813 187.312 74.0494 187.004 73.6269C186.707 73.2044 186.558 72.7165 186.558 72.1632C186.558 71.5194 186.765 70.941 187.18 70.428C187.594 69.9049 188.263 69.3818 189.186 68.8587C188.687 68.3155 188.337 67.8628 188.135 67.5007C187.944 67.1285 187.849 66.7462 187.849 66.3539C187.849 65.6497 188.103 65.0864 188.613 64.6639C189.123 64.2314 189.797 64.0151 190.636 64.0151C191.422 64.0151 192.043 64.2112 192.5 64.6036C192.956 64.9858 193.185 65.5089 193.185 66.1728C193.185 66.706 193.015 67.1838 192.675 67.6063C192.335 68.0288 191.735 68.5016 190.875 69.0247L193.551 71.8765C194.05 70.9611 194.315 69.8546 194.347 68.5569H195.494C195.473 69.3717 195.361 70.1312 195.16 70.8354C194.958 71.5295 194.676 72.1481 194.315 72.6914ZM190.652 64.9506C190.185 64.9506 189.808 65.0814 189.521 65.3429C189.234 65.5944 189.091 65.9314 189.091 66.3539C189.091 66.6456 189.165 66.9223 189.314 67.1838C189.463 67.4454 189.755 67.8125 190.19 68.2853C190.891 67.8729 191.374 67.5158 191.639 67.214C191.905 66.9122 192.038 66.5853 192.038 66.2332C192.038 65.8509 191.91 65.5441 191.655 65.3128C191.401 65.0713 191.066 64.9506 190.652 64.9506ZM190.238 73.9739C191.278 73.9739 192.165 73.5866 192.898 72.8121L189.871 69.5981C189.128 70.0306 188.602 70.4431 188.295 70.8354C187.987 71.2176 187.833 71.6502 187.833 72.1331C187.833 72.6964 188.05 73.144 188.486 73.476C188.921 73.808 189.505 73.9739 190.238 73.9739Z" fill="#2C2C2C"/>
<path d="M215.097 74.9849C213.323 74.9849 211.911 74.5322 210.86 73.6269L211.354 72.6763C211.916 73.1289 212.49 73.4508 213.074 73.642C213.658 73.8331 214.337 73.9287 215.113 73.9287C216.026 73.9287 216.727 73.7627 217.215 73.4307C217.714 73.0887 217.964 72.6109 217.964 71.9973C217.964 71.6351 217.842 71.3434 217.597 71.1221C217.364 70.8907 217.051 70.7096 216.658 70.5789C216.275 70.4481 215.76 70.3123 215.113 70.1715C214.242 69.9904 213.525 69.7942 212.962 69.583C212.399 69.3717 211.943 69.07 211.592 68.6776C211.242 68.2753 211.067 67.7522 211.067 67.1084C211.067 66.4947 211.237 65.9566 211.577 65.4938C211.916 65.021 212.394 64.6539 213.01 64.3923C213.637 64.1308 214.364 64 215.192 64C215.978 64 216.711 64.1157 217.39 64.3471C218.07 64.5784 218.643 64.9154 219.111 65.358L218.601 66.3086C218.07 65.8761 217.528 65.5592 216.976 65.358C216.435 65.1568 215.84 65.0562 215.192 65.0562C214.311 65.0562 213.621 65.2373 213.122 65.5995C212.622 65.9515 212.373 66.4394 212.373 67.0631C212.373 67.6063 212.591 68.0137 213.026 68.2853C213.461 68.5569 214.13 68.7933 215.033 68.9945C216.01 69.2158 216.774 69.422 217.327 69.6132C217.889 69.7942 218.357 70.0759 218.728 70.4582C219.1 70.8304 219.286 71.3283 219.286 71.952C219.286 72.5556 219.116 73.0887 218.776 73.5514C218.436 74.0041 217.948 74.3562 217.311 74.6077C216.684 74.8592 215.946 74.9849 215.097 74.9849Z" fill="#2C2C2C"/>
<path d="M226.2 64.1207H230.723C231.891 64.1207 232.799 64.3873 233.447 64.9204C234.105 65.4536 234.435 66.1879 234.435 67.1235C234.435 68.059 234.105 68.7984 233.447 69.3416C232.789 69.8747 231.881 70.1413 230.723 70.1413H227.506V74.8642H226.2V64.1207ZM230.612 69.1152C231.451 69.1152 232.082 68.9442 232.507 68.6022C232.932 68.2602 233.144 67.7673 233.144 67.1235C233.144 66.4797 232.932 65.9918 232.507 65.6598C232.082 65.3178 231.451 65.1468 230.612 65.1468H227.506V69.1152H230.612Z" fill="#2C2C2C"/>
<path d="M245.991 74.9849C244.94 74.9849 244.027 74.7636 243.251 74.321C242.476 73.8784 241.876 73.2446 241.452 72.4198C241.037 71.5848 240.83 70.6091 240.83 69.4925C240.83 68.3658 241.037 67.39 241.452 66.5652C241.866 65.7403 242.46 65.1065 243.236 64.6639C244.011 64.2213 244.929 64 245.991 64C247.053 64 247.972 64.2213 248.747 64.6639C249.522 65.1065 250.117 65.7403 250.531 66.5652C250.945 67.39 251.152 68.3608 251.152 69.4774C251.152 70.604 250.94 71.5798 250.515 72.4047C250.101 73.2295 249.506 73.8683 248.731 74.321C247.956 74.7636 247.042 74.9849 245.991 74.9849ZM245.991 73.9287C247.191 73.9287 248.126 73.5414 248.795 72.7668C249.464 71.9922 249.798 70.8957 249.798 69.4774C249.798 68.059 249.464 66.9675 248.795 66.203C248.136 65.4385 247.202 65.0562 245.991 65.0562C244.781 65.0562 243.841 65.4435 243.172 66.2181C242.503 66.9826 242.168 68.069 242.168 69.4774C242.168 70.8957 242.503 71.9922 243.172 72.7668C243.841 73.5414 244.781 73.9287 245.991 73.9287Z" fill="#2C2C2C"/>
<path d="M267.231 74.8642H265.845L264.444 71.2881C264.274 70.8454 264.035 70.5487 263.727 70.3978C263.43 70.2469 263.005 70.1715 262.453 70.1715H259.617V74.8642H258.327V64.1207H262.835C264.056 64.1207 264.99 64.3772 265.638 64.8903C266.297 65.4033 266.626 66.1427 266.626 67.1084C266.626 67.8125 266.429 68.406 266.036 68.8889C265.654 69.3617 265.097 69.6987 264.364 69.8999C264.693 69.9502 264.975 70.086 265.208 70.3073C265.442 70.5185 265.638 70.8253 265.798 71.2277L267.231 74.8642ZM262.723 69.1454C264.465 69.1454 265.336 68.4714 265.336 67.1235C265.336 66.4595 265.123 65.9666 264.698 65.6447C264.274 65.3128 263.615 65.1468 262.723 65.1468H259.617V69.1454H262.723Z" fill="#2C2C2C"/>
<path d="M276.578 74.8642V65.177H272.628V64.1207H281.851V65.177H277.9V74.8642H276.578Z" fill="#2C2C2C"/>
<path d="M301.989 74.9849C300.916 74.9849 299.982 74.7636 299.185 74.321C298.399 73.8784 297.794 73.2446 297.369 72.4198C296.945 71.5848 296.732 70.604 296.732 69.4774C296.732 68.3507 296.945 67.38 297.369 66.5652C297.794 65.7403 298.399 65.1065 299.185 64.6639C299.982 64.2213 300.916 64 301.989 64C302.774 64 303.491 64.1157 304.139 64.3471C304.797 64.5684 305.366 64.9053 305.843 65.358L305.35 66.3086C304.808 65.866 304.272 65.5492 303.741 65.358C303.22 65.1669 302.642 65.0713 302.005 65.0713C300.762 65.0713 299.796 65.4536 299.106 66.2181C298.426 66.9826 298.086 68.069 298.086 69.4774C298.086 70.8957 298.426 71.9922 299.106 72.7668C299.785 73.5313 300.752 73.9136 302.005 73.9136C302.642 73.9136 303.22 73.818 303.741 73.6269C304.272 73.4358 304.808 73.1189 305.35 72.6763L305.843 73.6269C305.366 74.0796 304.797 74.4216 304.139 74.6529C303.491 74.8743 302.774 74.9849 301.989 74.9849Z" fill="#2C2C2C"/>
<path d="M321.199 74.8642L319.956 72.1029H314.031L312.772 74.8642H311.419L316.404 64.1207H317.551L322.537 74.8642H321.199ZM314.493 71.0768H319.494L316.993 65.5542L314.493 71.0768Z" fill="#2C2C2C"/>
<path d="M337.914 74.8642H336.528L335.126 71.2881C334.956 70.8454 334.717 70.5487 334.409 70.3978C334.112 70.2469 333.687 70.1715 333.135 70.1715H330.3V74.8642H329.01V64.1207H333.517C334.738 64.1207 335.673 64.3772 336.321 64.8903C336.979 65.4033 337.308 66.1427 337.308 67.1084C337.308 67.8125 337.112 68.406 336.719 68.8889C336.337 69.3617 335.779 69.6987 335.046 69.8999C335.376 69.9502 335.657 70.086 335.891 70.3073C336.124 70.5185 336.321 70.8253 336.48 71.2277L337.914 74.8642ZM333.406 69.1454C335.147 69.1454 336.018 68.4714 336.018 67.1235C336.018 66.4595 335.806 65.9666 335.381 65.6447C334.956 65.3128 334.298 65.1468 333.406 65.1468H330.3V69.1454H333.406Z" fill="#2C2C2C"/>
<path d="M344.832 74.8642V64.1207H352V65.1468H346.122V68.8889H351.681V69.93H346.122V73.8381H352V74.8642H344.832Z" fill="#2C2C2C"/>
<path d="M124 47.6795V22.3205H140.339V25.989H128.498V32.9342H139.636V36.6384H128.498V47.6795H124Z" fill="#2594B3"/>
<path d="M144.108 47.6795V22.3205H148.641V47.6795H144.108Z" fill="#2594B3"/>
<path d="M159.928 47.6795V26.0959H151.776V22.3205H172.683V26.0959H164.496V47.6795H159.928Z" fill="#2594B3"/>
<path d="M179.823 44.011H193.14V47.6795H174.763V44.3315L187.623 25.989H174.763V22.3205H192.753V25.6329L179.823 44.011Z" fill="#2594B3"/>
<path d="M217.482 33.9671V46.1479C216.334 46.7178 214.952 47.1689 213.336 47.5014C211.719 47.8338 210.068 48 208.381 48C205.804 48 203.567 47.4776 201.67 46.4329C199.772 45.3881 198.32 43.8922 197.313 41.9452C196.305 39.9982 195.802 37.6712 195.802 34.9644C195.802 32.305 196.305 30.0018 197.313 28.0548C198.32 26.1078 199.749 24.6119 201.599 23.5671C203.473 22.5224 205.664 22 208.17 22C209.927 22 211.567 22.2612 213.09 22.7836C214.636 23.3059 215.924 24.042 216.955 24.9918L215.409 28.3397C214.237 27.4137 213.09 26.7489 211.965 26.3452C210.841 25.9416 209.611 25.7397 208.276 25.7397C205.699 25.7397 203.743 26.5233 202.408 28.0904C201.096 29.6575 200.44 31.9489 200.44 34.9644C200.44 38.0749 201.119 40.4256 202.478 42.0164C203.837 43.5836 205.863 44.3671 208.557 44.3671C210.197 44.3671 211.813 44.1416 213.406 43.6904V37.2795H207.995V33.9671H217.482Z" fill="#2594B3"/>
<path d="M222.586 47.6795V22.3205H239.312V25.9534H227.013V32.9699H238.574V36.6027H227.013V44.0466H239.312V47.6795H222.586Z" fill="#2594B3"/>
<path d="M264.075 47.6795H259.296L256.098 39.2384C255.817 38.4548 255.384 37.9087 254.798 37.6C254.212 37.2913 253.451 37.137 252.514 37.137H247.981V47.6795H243.484V22.3205H254.201C257.035 22.3205 259.19 22.9498 260.666 24.2082C262.142 25.4667 262.88 27.2712 262.88 29.6219C262.88 31.3078 262.435 32.7443 261.545 33.9315C260.678 35.095 259.436 35.926 257.82 36.4247C259.296 36.7333 260.362 37.7781 261.018 39.5589L264.075 47.6795ZM253.568 33.5753C255.278 33.5753 256.543 33.2548 257.363 32.6137C258.183 31.9726 258.593 30.9991 258.593 29.6932C258.593 28.411 258.183 27.4612 257.363 26.8438C256.567 26.2027 255.302 25.8822 253.568 25.8822H247.911V33.5753H253.568Z" fill="#2594B3"/>
<path d="M286.962 47.6795L284.467 41.7315H272.239L269.709 47.6795H265.141L276.456 22.3205H280.145L291.495 47.6795H286.962ZM273.75 38.1699H282.956L278.353 27.3068L273.75 38.1699Z" fill="#2594B3"/>
<path d="M294.201 47.6795V22.3205H298.733V43.9041H310.434V47.6795H294.201Z" fill="#2594B3"/>
<path d="M313.863 22.3205H323.069C327.169 22.3205 330.343 23.4247 332.592 25.6329C334.864 27.8411 336 30.9516 336 34.9644C336 39.0009 334.864 42.1352 332.592 44.3671C330.343 46.5753 327.169 47.6795 323.069 47.6795H313.863V22.3205ZM322.788 43.9397C328.551 43.9397 331.432 40.9479 331.432 34.9644C331.432 29.0283 328.551 26.0603 322.788 26.0603H318.396V43.9397H322.788Z" fill="#2594B3"/>
<path fill-rule="evenodd" clip-rule="evenodd" d="M39.3933 79.1793C39.3933 79.1793 85.859 35.7142 33.1432 31.3599C21.0798 30.3634 18.561 25.3147 27.9731 10.4344C27.9731 10.4344 14.6096 22.8378 20.5494 31.5593C27.9406 42.4113 67.3454 29.3671 39.3933 79.1793Z" fill="#266E8C"/>
<path fill-rule="evenodd" clip-rule="evenodd" d="M46.5166 28.2367C49.0602 31.1909 53.5169 31.5236 56.4711 28.98C59.4252 26.4364 59.7581 21.9797 57.2144 19.0255C54.6708 16.0715 50.2139 15.7386 47.2599 18.2822C44.3058 20.8258 43.973 25.2827 46.5166 28.2367Z" fill="#266E8C"/>
<path fill-rule="evenodd" clip-rule="evenodd" d="M63.7787 33.7585C63.7787 33.7585 72.1431 50.8859 41.7425 79.1727C41.2148 79.6637 86.0078 52.5516 63.7787 33.7585Z" fill="#266E8C"/>
<path fill-rule="evenodd" clip-rule="evenodd" d="M44.8067 0C20.0607 0.000179078 0 19.9233 0 44.5C0 61.619 9.19759 74.9121 17.4563 79.8122C34.6711 88.1209 46.665 58.3442 46.665 58.3442C46.5884 58.6706 40.1413 70.2251 27.9139 74.8589C24.2256 76.2566 21.1327 75.771 18.0998 73.261C10.3774 66.8697 5.60088 57.7681 5.60088 44.5C5.60088 22.9956 23.1538 5.5627 44.8067 5.56252C66.4066 5.56234 84.0129 23.0482 84.0129 44.5002C84.0129 90.0383 32.5416 87.3122 32.5416 87.3122C36.4396 88.4114 40.554 89 44.8069 89C69.5529 89 89.6136 69.0767 89.6138 44.5002C89.6138 19.9837 69.4923 0 44.8067 0Z" fill="#2594B3"/>
</svg>
