<svg width="101" height="30" viewBox="0 0 101 30" fill="none" xmlns="http://www.w3.org/2000/svg">
<path d="M11.9282 1.56937C11.8286 2.89838 11.7788 4.08601 11.7788 5.13225C11.7788 5.78262 11.8002 6.29161 11.8428 6.6592H11.3521C11.0106 5.01915 10.4843 3.84566 9.77301 3.13873C9.07595 2.41767 8.29354 2.05714 7.42578 2.05714H7.14838C6.76429 2.05714 6.47978 2.09249 6.29484 2.16318C6.12414 2.21973 6.00322 2.33991 5.93209 2.52371C5.87519 2.69337 5.84674 2.98321 5.84674 3.39323V8.82239H6.06012C6.79985 8.82239 7.43289 8.53255 7.95924 7.95287C8.48559 7.3732 8.81989 6.7299 8.96215 6.02297H9.45293C9.41026 6.61679 9.38892 7.2813 9.38892 8.0165V9.03446C9.38892 9.75552 9.43159 10.7594 9.51695 12.0459H9.02616C8.89813 11.2401 8.56383 10.5756 8.02326 10.0524C7.49691 9.51517 6.84253 9.24654 6.06012 9.24654H5.84674V14.1243C5.84674 14.7181 5.90364 15.1493 6.01744 15.418C6.14547 15.6866 6.36597 15.8704 6.67894 15.9694C7.00612 16.0542 7.51825 16.0966 8.2153 16.0966V16.5844C6.29484 16.542 4.8296 16.5208 3.81958 16.5208C3.15098 16.5208 2.2192 16.5349 1.02425 16.5632L0 16.5844V16.1602C0.45522 16.132 0.78241 16.0754 0.981569 15.9906C1.19495 15.9057 1.33721 15.7432 1.40834 15.5028C1.47947 15.2624 1.51503 14.8736 1.51503 14.3364V3.81738C1.51503 3.28012 1.47235 2.89131 1.387 2.65096C1.31587 2.4106 1.18073 2.24801 0.981569 2.16318C0.78241 2.07835 0.45522 2.0218 0 1.99352V1.56937C1.65017 1.61178 4.13966 1.63299 7.46846 1.63299C9.55963 1.63299 11.0462 1.61178 11.9282 1.56937Z" fill="#2D2D2D"/>
<path d="M15.8203 0C16.56 0 17.1291 0.155523 17.5274 0.466569C17.9399 0.777615 18.1462 1.23004 18.1462 1.82386C18.1462 2.41767 17.9399 2.8701 17.5274 3.18115C17.1291 3.4922 16.56 3.64772 15.8203 3.64772C15.0663 3.64772 14.4902 3.4922 14.0919 3.18115C13.6936 2.8701 13.4944 2.41767 13.4944 1.82386C13.4944 1.23004 13.6936 0.777615 14.0919 0.466569C14.4902 0.155523 15.0663 0 15.8203 0ZM17.8688 14.6121C17.8688 15.1918 17.9541 15.5947 18.1248 15.8209C18.3098 16.033 18.6227 16.139 19.0637 16.139V16.5844C17.5274 16.5278 16.5173 16.4996 16.0337 16.4996C15.55 16.4996 14.4831 16.5278 12.8329 16.5844V16.139C13.2739 16.139 13.5798 16.033 13.7505 15.8209C13.9354 15.5947 14.0279 15.1918 14.0279 14.6121V7.88925C14.0279 7.23888 13.9354 6.76524 13.7505 6.46834C13.5798 6.17143 13.2739 6.02297 12.8329 6.02297V5.57761C13.2881 5.62003 13.7291 5.64124 14.1559 5.64124C15.6354 5.64124 16.873 5.54227 17.8688 5.34433V14.6121Z" fill="#2D2D2D"/>
<path d="M24.8054 5.57761H26.8966V6.00177H24.8054V14.8029C24.8054 15.0857 24.8552 15.2837 24.9548 15.3968C25.0544 15.5099 25.218 15.5664 25.4456 15.5664C25.6163 15.5664 25.8084 15.5169 26.0217 15.418C26.2351 15.319 26.4272 15.1635 26.5979 14.9514L26.918 15.2059C26.2636 16.3228 25.2536 16.8813 23.8879 16.8813C22.9063 16.8813 22.1737 16.6409 21.69 16.1602C21.3913 15.8633 21.1921 15.4957 21.0926 15.0574C21.0072 14.6191 20.9645 14.0041 20.9645 13.2124V6.00177H19.3428V5.57761H20.9645V3.07511C21.7327 3.07511 22.4227 3.00442 23.0344 2.86303C23.6603 2.70751 24.2506 2.46716 24.8054 2.14197V5.57761Z" fill="#2D2D2D"/>
<path d="M31.6468 16.2663H31.9455C32.8844 16.2663 33.7024 15.9552 34.3994 15.3331C35.1107 14.6969 35.5232 13.6577 35.637 12.2156H36.0638C36.0638 14.3364 36.0923 15.8209 36.1492 16.6692C34.9684 16.6127 33.5743 16.5844 31.9668 16.5844C30.5443 16.5844 29.0364 16.6197 27.4431 16.6904L32.2229 5.91694H31.7961C30.8715 5.91694 30.0748 6.23505 29.4062 6.87128C28.7376 7.49337 28.3464 8.52548 28.2326 9.9676H27.8058C27.8058 7.84683 27.7774 6.3623 27.7205 5.51399C28.9012 5.57055 30.2953 5.59882 31.9028 5.59882C33.3254 5.59882 34.8333 5.56348 36.4266 5.49278L31.6468 16.2663Z" fill="#2D2D2D"/>
<path d="M47.9638 7.71959C47.6651 7.71959 47.4019 7.62062 47.1743 7.42268C46.9609 7.2106 46.8542 6.92077 46.8542 6.55317C46.8542 6.21384 46.9538 5.84624 47.153 5.45037C46.527 5.70486 46.0647 6.06539 45.766 6.53196C46.2923 7.08336 46.5555 7.79735 46.5555 8.67393C46.5555 9.79087 46.1358 10.6392 45.2965 11.2189C44.4714 11.7844 43.3618 12.0672 41.9677 12.0672C41.6974 12.0672 41.4983 12.0601 41.3702 12.0459C41.0004 12.3004 40.8154 12.5973 40.8154 12.9367C40.8154 13.3891 41.0715 13.6153 41.5836 13.6153H43.6535C45.1045 13.6153 46.2354 13.8627 47.0463 14.3576C47.8714 14.8383 48.2839 15.5947 48.2839 16.6268C48.2839 17.362 48.0421 18.0265 47.5584 18.6203C47.089 19.2141 46.3563 19.6878 45.3605 20.0412C44.379 20.3947 43.1485 20.5714 41.669 20.5714C40.2038 20.5714 39.0515 20.4088 38.2122 20.0837C37.3728 19.7585 36.9532 19.299 36.9532 18.7052C36.9532 18.2951 37.1595 17.9205 37.572 17.5812C37.9846 17.2418 38.6105 16.9732 39.4498 16.7753L39.6632 17.1146C39.2791 17.5811 39.087 18.0336 39.087 18.4719C39.087 19.0233 39.336 19.4474 39.8339 19.7443C40.346 20.0554 41.0573 20.2109 41.9677 20.2109C42.9066 20.2109 43.625 20.02 44.1229 19.6383C44.635 19.2707 44.8911 18.7758 44.8911 18.1538C44.8911 17.7155 44.7204 17.362 44.379 17.0934C44.0518 16.8389 43.4685 16.7116 42.6292 16.7116H41.4769C40.5096 16.7116 39.7699 16.5278 39.2577 16.1602C38.7456 15.7926 38.4896 15.2978 38.4896 14.6757C38.4896 14.1102 38.6887 13.6153 39.087 13.1912C39.4996 12.767 40.0899 12.3711 40.8581 12.0035C39.777 11.8622 38.9234 11.5158 38.2975 10.9644C37.6858 10.3988 37.38 9.63535 37.38 8.67393C37.38 7.557 37.7925 6.71576 38.6176 6.15022C39.4569 5.57055 40.5736 5.28071 41.9677 5.28071C43.4614 5.28071 44.6137 5.59175 45.4246 6.21384C45.6948 5.84624 46.022 5.55641 46.4061 5.34433C46.7902 5.13225 47.1956 5.02622 47.6224 5.02622C48.0919 5.02622 48.4546 5.16053 48.7107 5.42916C48.9667 5.68365 49.0948 6.01591 49.0948 6.42592C49.0948 6.8218 48.9881 7.13991 48.7747 7.38027C48.5613 7.60648 48.291 7.71959 47.9638 7.71959ZM41.9677 11.6854C42.2522 11.6854 42.4656 11.4592 42.6079 11.0068C42.7644 10.5402 42.8426 9.76259 42.8426 8.67393C42.8426 7.58527 42.7644 6.81473 42.6079 6.3623C42.4656 5.89573 42.2522 5.66244 41.9677 5.66244C41.6832 5.66244 41.4627 5.89573 41.3062 6.3623C41.164 6.81473 41.0928 7.58527 41.0928 8.67393C41.0928 9.76259 41.164 10.5402 41.3062 11.0068C41.4627 11.4592 41.6832 11.6854 41.9677 11.6854Z" fill="#2D2D2D"/>
<path d="M55.8117 14.5697C56.8502 14.5697 57.7108 14.096 58.3937 13.1487L58.7564 13.276C58.4435 14.2657 57.91 15.114 57.156 15.8209C56.4163 16.5278 55.4632 16.8813 54.2967 16.8813C52.803 16.8813 51.608 16.4218 50.7118 15.5028C49.8156 14.5838 49.3675 13.1134 49.3675 11.0916C49.3675 9.15464 49.8654 7.70545 50.8612 6.74404C51.8712 5.76848 53.2013 5.28071 54.8515 5.28071C57.5401 5.28071 58.8844 6.86421 58.8844 10.0312H53.3791C53.3649 10.2009 53.3578 10.4554 53.3578 10.7947C53.3578 12.152 53.5925 13.1205 54.062 13.7001C54.5456 14.2798 55.1289 14.5697 55.8117 14.5697ZM54.7021 5.76848C53.9055 5.76848 53.436 7.05508 53.2938 9.62828H55.769C55.7833 8.4972 55.6979 7.57113 55.513 6.85007C55.3423 6.12901 55.072 5.76848 54.7021 5.76848Z" fill="#2D2D2D"/>
<path d="M67.466 5.28071C68.1631 5.28071 68.661 5.49278 68.9597 5.91694C69.2727 6.34109 69.4291 6.843 69.4291 7.42268C69.4291 8.05891 69.2442 8.56789 68.8743 8.94963C68.5187 9.31723 68.0493 9.50103 67.466 9.50103C66.8543 9.50103 66.3849 9.36672 66.0577 9.09809C65.7305 8.81532 65.5669 8.44065 65.5669 7.97408C65.5669 7.13991 65.9296 6.48247 66.6551 6.00177C66.3991 6.00177 66.1715 6.05125 65.9723 6.15022C65.6167 6.30574 65.3179 6.56024 65.0761 6.9137C64.8343 7.25302 64.7133 7.62769 64.7133 8.0377V14.4C64.7133 15.0645 64.8485 15.524 65.1188 15.7785C65.4033 16.0189 65.8798 16.139 66.5485 16.139V16.5844C66.3635 16.5844 66.207 16.5773 66.079 16.5632C64.5853 16.5208 63.5895 16.4996 63.0916 16.4996C62.6506 16.4996 61.6619 16.5208 60.1256 16.5632C60.0118 16.5773 59.8624 16.5844 59.6775 16.5844V16.139C60.1185 16.139 60.4243 16.033 60.595 15.8209C60.78 15.5947 60.8724 15.1918 60.8724 14.6121V7.88925C60.8724 7.23888 60.78 6.76524 60.595 6.46834C60.4243 6.17143 60.1185 6.02297 59.6775 6.02297V5.57761C60.1327 5.62003 60.5737 5.64124 61.0005 5.64124C62.4799 5.64124 63.7175 5.54227 64.7133 5.34433V6.87128C65.2539 5.8109 66.1715 5.28071 67.466 5.28071Z" fill="#2D2D2D"/>
<path d="M72.7248 16.7328C71.8143 16.7328 71.1244 16.4925 70.6549 16.0118C70.1997 15.5169 69.9721 14.9019 69.9721 14.1667C69.9721 13.5305 70.1357 13.0074 70.4629 12.5973C70.8043 12.1732 71.2026 11.848 71.6578 11.6218C72.1131 11.3956 72.7034 11.1623 73.4289 10.9219C74.1971 10.6675 74.759 10.4342 75.1147 10.2221C75.4703 10.01 75.6481 9.71311 75.6481 9.33137V7.44389C75.6481 6.99146 75.5343 6.58851 75.3067 6.23505C75.0791 5.88159 74.6879 5.70486 74.1331 5.70486C73.6921 5.70486 73.2938 5.82504 72.9382 6.06539C73.4218 6.23505 73.7775 6.48954 74.0051 6.82887C74.2469 7.15405 74.3678 7.52165 74.3678 7.93166C74.3678 8.48306 74.1687 8.92842 73.7704 9.26775C73.3863 9.59293 72.9168 9.75552 72.362 9.75552C71.8072 9.75552 71.3662 9.58586 71.039 9.24654C70.7261 8.89308 70.5696 8.44772 70.5696 7.91046C70.5696 7.4863 70.6763 7.1187 70.8897 6.80766C71.1031 6.49661 71.4373 6.21384 71.8926 5.95935C72.6892 5.50692 73.8273 5.28071 75.3067 5.28071C76.0891 5.28071 76.7649 5.35847 77.3339 5.51399C77.9029 5.65538 78.3866 5.93108 78.7849 6.34109C79.0694 6.638 79.2543 7.01267 79.3397 7.4651C79.4393 7.90339 79.4891 8.51841 79.4891 9.31016V14.9938C79.4891 15.3473 79.5104 15.5876 79.5531 15.7149C79.61 15.8421 79.7024 15.9057 79.8305 15.9057C79.9301 15.9057 80.0368 15.8775 80.1506 15.8209C80.2644 15.7502 80.371 15.6725 80.4706 15.5876L80.684 15.9482C80.0723 16.4713 79.1974 16.7328 78.0594 16.7328C77.2058 16.7328 76.6084 16.5915 76.2669 16.3087C75.9255 16.0118 75.7406 15.6159 75.7122 15.1211C75.0435 16.1956 74.0478 16.7328 72.7248 16.7328ZM74.8586 15.0362C75.1573 15.0362 75.4205 14.9161 75.6481 14.6757V10.2009C75.5201 10.413 75.2854 10.6887 74.944 11.028C74.5599 11.3956 74.2682 11.7561 74.0691 12.1096C73.8699 12.4489 73.7704 12.9155 73.7704 13.5093C73.7704 14.5272 74.1331 15.0362 74.8586 15.0362Z" fill="#2D2D2D"/>
<path d="M86.2587 14.6121C86.2587 15.1918 86.344 15.5947 86.5147 15.8209C86.6997 16.033 87.0126 16.139 87.4536 16.139V16.5844C85.9173 16.5278 84.9072 16.4996 84.4236 16.4996C83.9399 16.4996 82.873 16.5278 81.2228 16.5844V16.139C81.6638 16.139 81.9697 16.033 82.1404 15.8209C82.3253 15.5947 82.4178 15.1918 82.4178 14.6121V2.54492C82.4178 1.89455 82.3253 1.42091 82.1404 1.12401C81.9697 0.827099 81.6638 0.678645 81.2228 0.678645V0.233285C81.6638 0.275701 82.1048 0.296908 82.5458 0.296908C84.0253 0.296908 85.2629 0.197939 86.2587 0V14.6121Z" fill="#2D2D2D"/>
<path d="M99.0908 14.2515C99.0908 14.9019 99.1761 15.3756 99.3468 15.6725C99.5318 15.9694 99.8447 16.1178 100.286 16.1178V16.5632C99.8447 16.5208 99.4037 16.4996 98.9627 16.4996C97.4833 16.4996 96.2456 16.5985 95.2498 16.7965V15.2907C94.9511 15.8421 94.5955 16.2451 94.1829 16.4996C93.7846 16.7541 93.2725 16.8813 92.6465 16.8813C91.3378 16.8813 90.2851 16.4006 89.4884 15.4392C88.6918 14.4636 88.2935 12.9862 88.2935 11.0068C88.2935 9.12636 88.7132 7.70545 89.5525 6.74404C90.406 5.76848 91.5654 5.28071 93.0306 5.28071C93.9411 5.28071 94.6808 5.45744 95.2498 5.8109V2.54492C95.2498 1.89455 95.1574 1.42091 94.9724 1.12401C94.8017 0.827099 94.4959 0.678645 94.0549 0.678645V0.233285C94.4959 0.275701 94.9369 0.296908 95.3779 0.296908C96.8573 0.296908 98.095 0.197939 99.0908 0V14.2515ZM93.7135 15.7785C94.126 15.7785 94.4817 15.6371 94.7804 15.3543C95.0934 15.0574 95.2498 14.6898 95.2498 14.2515V6.25626C94.9369 6.07246 94.6026 5.98056 94.2469 5.98056C93.5783 5.98056 93.0804 6.40471 92.7532 7.25302C92.4403 8.08719 92.2838 9.35965 92.2838 11.0704C92.2838 12.8094 92.4118 14.0324 92.6679 14.7393C92.9239 15.4321 93.2725 15.7785 93.7135 15.7785Z" fill="#2D2D2D"/>
<path d="M15.3503 28.3694C15.3503 28.8824 15.1804 29.2824 14.8405 29.5694C14.5006 29.8565 14.0393 30 13.4567 30C12.8254 30 12.3399 29.911 12 29.7329V29.0791C12.2185 29.1801 12.4564 29.2598 12.7138 29.3183C12.9711 29.3767 13.226 29.406 13.4785 29.406C13.8912 29.406 14.202 29.3209 14.4108 29.1508C14.6196 28.9781 14.724 28.7389 14.724 28.4332C14.724 28.2312 14.6863 28.0664 14.6111 27.9389C14.5382 27.8086 14.4144 27.689 14.2396 27.5801C14.0673 27.4711 13.8038 27.3475 13.4494 27.2093C12.9541 27.0153 12.5997 26.7854 12.386 26.5196C12.1748 26.2538 12.0692 25.907 12.0692 25.4791C12.0692 25.0299 12.2234 24.6724 12.5317 24.4066C12.84 24.1409 13.2479 24.008 13.7553 24.008C14.2845 24.008 14.7713 24.1143 15.2156 24.3269L15.0226 24.9169C14.5832 24.715 14.1559 24.614 13.7407 24.614C13.413 24.614 13.1568 24.691 12.9723 24.8452C12.7878 24.9993 12.6956 25.2133 12.6956 25.487C12.6956 25.689 12.7295 25.8551 12.7975 25.9854C12.8655 26.113 12.9796 26.2312 13.1398 26.3402C13.3025 26.4465 13.5501 26.5648 13.8827 26.695C14.4411 26.913 14.8247 27.1468 15.0335 27.3967C15.2447 27.6465 15.3503 27.9708 15.3503 28.3694Z" fill="#2D2D2D"/>
<path d="M19.815 25.79C19.815 26.3801 19.6305 26.8346 19.2615 27.1535C18.8949 27.4698 18.3693 27.6279 17.6846 27.6279H17.0583V29.9203H16.4392V24.0917H17.8194C19.1498 24.0917 19.815 24.6578 19.815 25.79ZM17.0583 27.0458H17.6155C18.1641 27.0458 18.5611 26.9488 18.8063 26.7548C19.0515 26.5608 19.1741 26.2498 19.1741 25.8219C19.1741 25.4365 19.0588 25.1495 18.8281 24.9608C18.5975 24.7721 18.2382 24.6777 17.7502 24.6777H17.0583V27.0458Z" fill="#2D2D2D"/>
<path d="M20.933 29.9203V24.0917H21.5521V29.9203H20.933Z" fill="#2D2D2D"/>
<path d="M27.1748 29.9203H26.4684L23.5587 25.0286H23.5295C23.5684 25.6027 23.5878 26.1289 23.5878 26.6073V29.9203H23.0161V24.0917H23.7153L26.6177 28.9635H26.6468C26.6419 28.8917 26.631 28.6618 26.614 28.2738C26.597 27.8831 26.591 27.604 26.5958 27.4365V24.0917H27.1748V29.9203Z" fill="#2D2D2D"/>
<path d="M31.6068 29.9203H28.6388V24.0917H31.6068V24.6937H29.2579V26.5714H31.4647V27.1694H29.2579V29.3143H31.6068V29.9203Z" fill="#2D2D2D"/>
<path d="M35.5033 25.2518C35.5033 25.4352 35.547 25.6106 35.6344 25.7781C35.7218 25.9429 35.8712 26.1422 36.0824 26.3761C36.3956 26.1767 36.6128 25.9934 36.7342 25.8259C36.858 25.6558 36.92 25.4605 36.92 25.2399C36.92 25.0352 36.8568 24.8691 36.7306 24.7415C36.6068 24.6113 36.4405 24.5462 36.2317 24.5462C36.0156 24.5462 35.8396 24.61 35.7036 24.7375C35.5701 24.8651 35.5033 25.0365 35.5033 25.2518ZM36.0678 29.406C36.6529 29.406 37.1385 29.2013 37.5245 28.792L35.9331 27.1017C35.6636 27.2824 35.473 27.4326 35.3613 27.5522C35.2496 27.6691 35.1671 27.7953 35.1137 27.9309C35.0603 28.0664 35.0336 28.2206 35.0336 28.3934C35.0336 28.7043 35.127 28.9515 35.314 29.1349C35.5033 29.3156 35.7546 29.406 36.0678 29.406ZM34.4072 28.4093C34.4072 28.0638 34.491 27.7581 34.6585 27.4924C34.8284 27.2266 35.1319 26.9581 35.5689 26.687C35.3625 26.4346 35.2217 26.2432 35.1465 26.113C35.0736 25.9827 35.0154 25.8472 34.9717 25.7063C34.928 25.5654 34.9061 25.4193 34.9061 25.2678C34.9061 24.8691 35.0251 24.5581 35.263 24.3349C35.5009 24.1116 35.8323 24 36.2572 24C36.6505 24 36.96 24.1116 37.1858 24.3349C37.4116 24.5555 37.5245 24.8638 37.5245 25.2598C37.5245 25.5442 37.4419 25.8073 37.2768 26.0492C37.1117 26.2884 36.8386 26.5316 36.4575 26.7787L37.9396 28.3375C38.0756 28.1728 38.1836 27.9801 38.2637 27.7595C38.3463 27.5362 38.4155 27.293 38.4713 27.0299H39.0831C38.918 27.79 38.6692 28.3668 38.3366 28.7601L39.4254 29.9203H38.5915L37.9178 29.2106C37.6313 29.4924 37.34 29.6944 37.0438 29.8166C36.7476 29.9389 36.4174 30 36.0532 30C35.5313 30 35.1258 29.8591 34.8369 29.5774C34.5504 29.2957 34.4072 28.9063 34.4072 28.4093Z" fill="#2D2D2D"/>
<path d="M45.1174 28.3694C45.1174 28.8824 44.9474 29.2824 44.6075 29.5694C44.2676 29.8565 43.8064 30 43.2237 30C42.5925 30 42.1069 29.911 41.767 29.7329V29.0791C41.9855 29.1801 42.2234 29.2598 42.4808 29.3183C42.7381 29.3767 42.993 29.406 43.2455 29.406C43.6583 29.406 43.969 29.3209 44.1778 29.1508C44.3866 28.9781 44.491 28.7389 44.491 28.4332C44.491 28.2312 44.4534 28.0664 44.3781 27.9389C44.3053 27.8086 44.1814 27.689 44.0066 27.5801C43.8343 27.4711 43.5709 27.3475 43.2164 27.2093C42.7211 27.0153 42.3667 26.7854 42.153 26.5196C41.9418 26.2538 41.8362 25.907 41.8362 25.4791C41.8362 25.0299 41.9904 24.6724 42.2987 24.4066C42.607 24.1409 43.0149 24.008 43.5223 24.008C44.0516 24.008 44.5383 24.1143 44.9826 24.3269L44.7896 24.9169C44.3502 24.715 43.9229 24.614 43.5077 24.614C43.18 24.614 42.9239 24.691 42.7393 24.8452C42.5548 24.9993 42.4626 25.2133 42.4626 25.487C42.4626 25.689 42.4966 25.8551 42.5645 25.9854C42.6325 26.113 42.7466 26.2312 42.9069 26.3402C43.0695 26.4465 43.3172 26.5648 43.6498 26.695C44.2081 26.913 44.5917 27.1468 44.8005 27.3967C45.0117 27.6465 45.1174 27.9708 45.1174 28.3694Z" fill="#2D2D2D"/>
<path d="M49.582 25.79C49.582 26.3801 49.3975 26.8346 49.0285 27.1535C48.6619 27.4698 48.1363 27.6279 47.4517 27.6279H46.8253V29.9203H46.2062V24.0917H47.5864C48.9168 24.0917 49.582 24.6578 49.582 25.79ZM46.8253 27.0458H47.3825C47.9311 27.0458 48.3281 26.9488 48.5733 26.7548C48.8185 26.5608 48.9411 26.2498 48.9411 25.8219C48.9411 25.4365 48.8258 25.1495 48.5951 24.9608C48.3645 24.7721 48.0052 24.6777 47.5172 24.6777H46.8253V27.0458Z" fill="#2D2D2D"/>
<path d="M55.3213 26.998C55.3213 27.9309 55.1052 28.6645 54.6731 29.1987C54.2434 29.7329 53.6449 30 52.8778 30C52.0936 30 51.4878 29.7382 51.0606 29.2146C50.6357 28.6884 50.4233 27.9468 50.4233 26.99C50.4233 26.0412 50.6369 25.3063 51.0642 24.7854C51.4915 24.2618 52.0984 24 52.885 24C53.6498 24 54.247 24.2658 54.6767 24.7973C55.1065 25.3289 55.3213 26.0625 55.3213 26.998ZM51.0788 26.998C51.0788 27.7874 51.2317 28.3867 51.5376 28.796C51.8459 29.2027 52.2927 29.406 52.8778 29.406C53.4677 29.406 53.9132 29.2027 54.2142 28.796C54.5153 28.3894 54.6658 27.79 54.6658 26.998C54.6658 26.214 54.5153 25.6199 54.2142 25.2159C53.9156 24.8093 53.4726 24.606 52.885 24.606C52.2951 24.606 51.8459 24.8106 51.5376 25.2199C51.2317 25.6266 51.0788 26.2193 51.0788 26.998Z" fill="#2D2D2D"/>
<path d="M57.1312 27.4963V29.9203H56.5121V24.0917H57.9725C58.6255 24.0917 59.1074 24.2286 59.4182 24.5023C59.7314 24.7761 59.888 25.188 59.888 25.7382C59.888 26.509 59.5311 27.0299 58.8173 27.301L60.2631 29.9203H59.5311L58.2419 27.4963H57.1312ZM57.1312 26.9143H57.9797C58.4167 26.9143 58.7372 26.8199 58.9411 26.6312C59.1451 26.4399 59.247 26.1542 59.247 25.7741C59.247 25.3887 59.1426 25.111 58.9338 24.9409C58.7275 24.7708 58.3949 24.6857 57.936 24.6857H57.1312V26.9143Z" fill="#2D2D2D"/>
<path d="M62.7612 29.9203H62.1422V24.6937H60.4561V24.0917H64.4473V24.6937H62.7612V29.9203Z" fill="#2D2D2D"/>
<path d="M68.2565 28.3694C68.2565 28.8824 68.0866 29.2824 67.7467 29.5694C67.4068 29.8565 66.9455 30 66.3629 30C65.7316 30 65.2461 29.911 64.9062 29.7329V29.0791C65.1247 29.1801 65.3626 29.2598 65.62 29.3183C65.8773 29.3767 66.1322 29.406 66.3847 29.406C66.7974 29.406 67.1082 29.3209 67.317 29.1508C67.5258 28.9781 67.6302 28.7389 67.6302 28.4332C67.6302 28.2312 67.5925 28.0664 67.5173 27.9389C67.4444 27.8086 67.3206 27.689 67.1458 27.5801C66.9734 27.4711 66.71 27.3475 66.3556 27.2093C65.8603 27.0153 65.5059 26.7854 65.2922 26.5196C65.081 26.2538 64.9754 25.907 64.9754 25.4791C64.9754 25.0299 65.1295 24.6724 65.4379 24.4066C65.7462 24.1409 66.1541 24.008 66.6615 24.008C67.1907 24.008 67.6775 24.1143 68.1218 24.3269L67.9288 24.9169C67.4893 24.715 67.0621 24.614 66.6469 24.614C66.3192 24.614 66.063 24.691 65.8785 24.8452C65.694 24.9993 65.6017 25.2133 65.6017 25.487C65.6017 25.689 65.6357 25.8551 65.7037 25.9854C65.7717 26.113 65.8858 26.2312 66.046 26.3402C66.2087 26.4465 66.4563 26.5648 66.7889 26.695C67.3473 26.913 67.7309 27.1468 67.9397 27.3967C68.1509 27.6465 68.2565 27.9708 68.2565 28.3694Z" fill="#2D2D2D"/>
<path d="M73.5624 24.614C72.9773 24.614 72.5149 24.8279 72.175 25.2558C71.8375 25.6811 71.6688 26.2645 71.6688 27.006C71.6688 27.7688 71.8314 28.3588 72.1568 28.7761C72.4845 29.1907 72.9506 29.398 73.5552 29.398C73.9266 29.398 74.3503 29.3249 74.8261 29.1787V29.7728C74.4571 29.9243 74.0019 30 73.4605 30C72.6763 30 72.0706 29.7395 71.6433 29.2186C71.2184 28.6977 71.006 27.9575 71.006 26.998C71.006 26.3973 71.108 25.8711 71.3119 25.4193C71.5182 24.9674 71.8144 24.6193 72.2005 24.3748C72.5889 24.1302 73.0453 24.008 73.5697 24.008C74.1281 24.008 74.6161 24.1196 75.0337 24.3429L74.7715 24.9249C74.3685 24.7176 73.9655 24.614 73.5624 24.614Z" fill="#2D2D2D"/>
<path d="M79.3345 29.9203L78.6717 28.0664H76.5377L75.8822 29.9203H75.2558L77.3607 24.0678H77.8815L79.9754 29.9203H79.3345ZM78.4787 27.4565L77.8596 25.6505C77.7795 25.4219 77.697 25.1415 77.612 24.8093C77.5586 25.0645 77.4821 25.3449 77.3826 25.6505L76.7562 27.4565H78.4787Z" fill="#2D2D2D"/>
<path d="M81.3265 27.4963V29.9203H80.7074V24.0917H82.1677C82.8208 24.0917 83.3027 24.2286 83.6134 24.5023C83.9266 24.7761 84.0832 25.188 84.0832 25.7382C84.0832 26.509 83.7263 27.0299 83.0126 27.301L84.4583 29.9203H83.7263L82.4372 27.4963H81.3265ZM81.3265 26.9143H82.175C82.612 26.9143 82.9325 26.8199 83.1364 26.6312C83.3403 26.4399 83.4423 26.1542 83.4423 25.7741C83.4423 25.3887 83.3379 25.111 83.1291 24.9409C82.9227 24.7708 82.5901 24.6857 82.1313 24.6857H81.3265V26.9143Z" fill="#2D2D2D"/>
<path d="M88.2857 29.9203H85.3178V24.0917H88.2857V24.6937H85.9368V26.5714H88.1437V27.1694H85.9368V29.3143H88.2857V29.9203Z" fill="#2D2D2D"/>
</svg>
