<svg width="423" height="107" viewBox="0 0 423 107" fill="none" xmlns="http://www.w3.org/2000/svg">
<path d="M135 53.7993V23.3845H154.597V27.7844H140.394V36.1143H153.754V40.5569H140.394V53.7993H135Z" fill="#266E8C"/>
<path d="M159.117 53.7993V23.3845H164.554V53.7993H159.117Z" fill="#266E8C"/>
<path d="M178.091 53.7993V27.9125H168.313V23.3845H193.389V27.9125H183.569V53.7993H178.091Z" fill="#266E8C"/>
<path d="M201.952 49.3994H217.925V53.7993H195.883V49.7838L211.308 27.7844H195.883V23.3845H217.461V27.3572L201.952 49.3994Z" fill="#266E8C"/>
<path d="M247.12 37.3531V51.9624C245.743 52.6459 244.085 53.187 242.147 53.5857C240.208 53.9844 238.227 54.1837 236.205 54.1837C233.114 54.1837 230.431 53.5572 228.155 52.3042C225.879 51.0511 224.137 49.257 222.929 46.9218C221.721 44.5865 221.117 41.7957 221.117 38.5491C221.117 35.3596 221.721 32.5972 222.929 30.262C224.137 27.9267 225.851 26.1326 228.071 24.8796C230.318 23.6265 232.945 23 235.952 23C238.059 23 240.026 23.3133 241.852 23.9398C243.706 24.5663 245.251 25.4491 246.488 26.5883L244.633 30.6037C243.228 29.4931 241.852 28.6957 240.503 28.2115C239.155 27.7274 237.68 27.4853 236.078 27.4853C232.988 27.4853 230.642 28.4251 229.04 30.3047C227.467 32.1842 226.68 34.9324 226.68 38.5491C226.68 42.2798 227.495 45.0992 229.124 47.0072C230.754 48.8868 233.184 49.8266 236.415 49.8266C238.382 49.8266 240.321 49.556 242.231 49.0149V41.3258H235.741V37.3531H247.12Z" fill="#266E8C"/>
<path d="M253.241 53.7993V23.3845H273.302V27.7416H258.552V36.157H272.417V40.5142H258.552V49.4421H273.302V53.7993H253.241Z" fill="#266E8C"/>
<path d="M303.002 53.7993H297.27L293.435 43.6752C293.098 42.7355 292.578 42.0805 291.876 41.7102C291.173 41.34 290.26 41.1549 289.137 41.1549H283.7V53.7993H278.306V23.3845H291.159C294.559 23.3845 297.144 24.1391 298.914 25.6485C300.684 27.1578 301.569 29.3222 301.569 32.1415C301.569 34.1635 301.035 35.8864 299.967 37.3103C298.928 38.7058 297.439 39.7025 295.5 40.3006C297.27 40.6708 298.549 41.9238 299.335 44.0597L303.002 53.7993ZM290.401 36.8832C292.452 36.8832 293.969 36.4987 294.952 35.7298C295.936 34.9609 296.427 33.7933 296.427 32.227C296.427 30.6891 295.936 29.55 294.952 28.8096C293.997 28.0407 292.48 27.6562 290.401 27.6562H283.616V36.8832H290.401Z" fill="#266E8C"/>
<path d="M330.453 53.7993L327.46 46.6655H312.794L309.76 53.7993H304.281L317.852 23.3845H322.277L335.889 53.7993H330.453ZM314.607 42.3937H325.648L320.127 29.3649L314.607 42.3937Z" fill="#266E8C"/>
<path d="M339.134 53.7993V23.3845H344.571V49.2712H358.605V53.7993H339.134Z" fill="#266E8C"/>
<path d="M362.717 23.3845H373.758C378.675 23.3845 382.482 24.7087 385.179 27.3572C387.905 30.0057 389.267 33.7363 389.267 38.5491C389.267 43.3905 387.905 47.1496 385.179 49.8266C382.482 52.475 378.675 53.7993 373.758 53.7993H362.717V23.3845ZM373.421 49.3139C380.333 49.3139 383.789 45.7257 383.789 38.5491C383.789 31.4296 380.333 27.8698 373.421 27.8698H368.153V49.3139H373.421Z" fill="#266E8C"/>
<path fill-rule="evenodd" clip-rule="evenodd" d="M47.2474 94.9654C47.2474 94.9654 102.977 42.8345 39.7512 37.6121C25.2826 36.4169 22.2617 30.3617 33.5503 12.5146C33.5503 12.5146 17.5225 27.391 24.6466 37.8512C33.5114 50.8669 80.7725 35.2219 47.2474 94.9654Z" fill="#266E8C"/>
<path fill-rule="evenodd" clip-rule="evenodd" d="M55.7908 33.8662C58.8416 37.4094 64.1868 37.8084 67.7301 34.7577C71.273 31.7069 71.6723 26.3617 68.6215 22.8185C65.5708 19.2755 60.2253 18.8763 56.6823 21.927C53.1393 24.9778 52.74 30.3232 55.7908 33.8662Z" fill="#266E8C"/>
<path fill-rule="evenodd" clip-rule="evenodd" d="M76.4943 40.4893C76.4943 40.4893 86.5263 61.0313 50.0646 94.9578C49.4316 95.5467 103.155 63.0291 76.4943 40.4893Z" fill="#266E8C"/>
<path fill-rule="evenodd" clip-rule="evenodd" d="M53.74 0C24.0603 0.000214782 0 23.8955 0 53.3722C0 73.9042 11.0314 89.8477 20.9366 95.7247C41.5837 105.69 55.9688 69.9765 55.9688 69.9765C55.8769 70.368 48.1444 84.2262 33.4792 89.7839C29.0556 91.4602 25.346 90.8778 21.7085 87.8674C12.4464 80.2018 6.71756 69.2855 6.71756 53.3722C6.71756 27.5803 27.7701 6.67176 53.74 6.67155C79.6464 6.67133 100.763 27.6435 100.763 53.3724C100.763 107.99 39.0296 104.72 39.0296 104.72C43.7048 106.038 48.6395 106.744 53.7402 106.744C83.4199 106.744 107.48 82.8488 107.48 53.3724C107.48 23.9679 83.3473 0 53.74 0Z" fill="#2594B3"/>
<path d="M138.74 83.9822C138.087 83.9822 137.475 83.9287 136.905 83.8217C136.334 83.7028 135.806 83.5245 135.319 83.2867C134.832 83.037 134.392 82.7339 134 82.3772L134.552 81.2538C135.194 81.7888 135.835 82.1692 136.477 82.3951C137.13 82.6209 137.891 82.7339 138.758 82.7339C139.768 82.7339 140.552 82.5377 141.11 82.1454C141.668 81.7412 141.948 81.1765 141.948 80.4513C141.948 80.0114 141.805 79.6607 141.52 79.3992C141.247 79.1257 140.866 78.9118 140.379 78.7572C139.904 78.5908 139.364 78.4362 138.758 78.2936C138.152 78.1628 137.576 78.0142 137.029 77.8477C136.483 77.6694 135.996 77.4495 135.568 77.1879C135.152 76.9264 134.826 76.5935 134.588 76.1893C134.35 75.7851 134.232 75.2798 134.232 74.6735C134.232 73.9483 134.422 73.3123 134.802 72.7654C135.182 72.2067 135.717 71.7727 136.406 71.4636C137.095 71.1545 137.908 71 138.847 71C139.429 71 139.987 71.0654 140.522 71.1962C141.057 71.315 141.55 71.4934 142.001 71.7311C142.464 71.9689 142.874 72.2602 143.231 72.6049L142.66 73.7284C142.078 73.2172 141.478 72.8427 140.861 72.6049C140.243 72.3672 139.572 72.2483 138.847 72.2483C137.861 72.2483 137.089 72.4563 136.53 72.8724C135.972 73.2885 135.693 73.8711 135.693 74.62C135.693 75.0837 135.818 75.4582 136.067 75.7435C136.317 76.0288 136.667 76.2606 137.118 76.439C137.57 76.6054 138.087 76.7599 138.669 76.9026C139.286 77.0453 139.88 77.1998 140.451 77.3663C141.021 77.5327 141.526 77.7407 141.965 77.9904C142.417 78.2282 142.773 78.5432 143.035 78.9355C143.296 79.316 143.427 79.8034 143.427 80.3978C143.427 81.123 143.236 81.7531 142.856 82.2881C142.476 82.823 141.936 83.2391 141.235 83.5364C140.534 83.8336 139.702 83.9822 138.74 83.9822Z" fill="#2C2C2C"/>
<path d="M151.161 83.8395V71.1427H156.222C157.529 71.1427 158.544 71.4577 159.269 72.0878C160.006 72.7179 160.374 73.5857 160.374 74.6914C160.374 75.7851 160.006 76.6529 159.269 77.2949C158.532 77.9369 157.517 78.2579 156.222 78.2579H152.622V83.8395H151.161ZM152.622 77.0453H156.097C157.036 77.0453 157.742 76.8432 158.218 76.439C158.693 76.0229 158.93 75.4403 158.93 74.6914C158.93 73.9424 158.693 73.3658 158.218 72.9616C157.742 72.5574 157.036 72.3553 156.097 72.3553H152.622V77.0453Z" fill="#2C2C2C"/>
<path d="M168.114 83.8395V71.1427H169.575V83.8395H168.114Z" fill="#2C2C2C"/>
<path d="M178.054 83.8395V71.1427H179.177L187.267 81.9314L186.839 82.0384V71.1427H188.229V83.8395H187.089L179.016 73.0686L179.426 72.9438V83.8395H178.054Z" fill="#2C2C2C"/>
<path d="M196.695 83.8395V71.1427H204.714V72.3553H198.138V76.7778H204.357V78.0082H198.138V82.6269H204.714V83.8395H196.695Z" fill="#2C2C2C"/>
<path d="M225.966 83.9643C225.146 83.9643 224.428 83.8276 223.81 83.5542C223.204 83.2689 222.729 82.8825 222.384 82.3951C222.052 81.8957 221.885 81.3132 221.885 80.6475C221.885 79.8628 222.129 79.1555 222.616 78.5254C223.115 77.8953 223.923 77.2593 225.039 76.6173C225.812 76.1655 226.411 75.7791 226.839 75.4582C227.279 75.1253 227.582 74.8221 227.748 74.5487C227.926 74.2634 228.015 73.9602 228.015 73.6392C228.015 73.1875 227.873 72.8249 227.588 72.5514C227.302 72.2661 226.928 72.1235 226.465 72.1235C225.942 72.1235 225.52 72.278 225.2 72.5871C224.879 72.8843 224.719 73.2826 224.719 73.7819C224.719 74.0197 224.754 74.2515 224.826 74.4774C224.909 74.6914 225.051 74.9351 225.253 75.2085C225.455 75.4819 225.74 75.8267 226.109 76.2428L230.456 81.1646C230.777 81.5213 231.151 81.8541 231.579 82.1632C232.007 82.4723 232.5 82.7517 233.058 83.0014L232.274 84C231.68 83.7266 231.157 83.4234 230.706 83.0905C230.255 82.7577 229.868 82.4129 229.548 82.0562L224.932 76.8669C224.529 76.4152 224.208 76.0169 223.97 75.6722C223.744 75.3274 223.578 75.0064 223.471 74.7092C223.376 74.412 223.329 74.1029 223.329 73.7819C223.329 73.2231 223.459 72.7417 223.721 72.3374C223.982 71.9214 224.344 71.6004 224.808 71.3745C225.283 71.1367 225.829 71.0178 226.447 71.0178C227.314 71.0178 228.003 71.2497 228.514 71.7133C229.037 72.1651 229.298 72.7833 229.298 73.5679C229.298 74.0434 229.191 74.4833 228.977 74.8875C228.764 75.2798 228.401 75.684 227.89 76.1001C227.38 76.5043 226.685 76.968 225.806 77.4911C225.2 77.8477 224.713 78.1925 224.344 78.5254C223.976 78.8464 223.709 79.1733 223.542 79.5062C223.388 79.839 223.311 80.2076 223.311 80.6118C223.311 81.2776 223.554 81.8066 224.041 82.1989C224.529 82.5912 225.182 82.7874 226.002 82.7874C226.893 82.7874 227.677 82.5258 228.354 82.0027C229.031 81.4678 229.566 80.7247 229.958 79.7737C230.35 78.8107 230.563 77.6813 230.599 76.3855H231.882C231.846 77.5267 231.674 78.561 231.365 79.4883C231.068 80.4156 230.658 81.2122 230.136 81.8779C229.613 82.5437 228.995 83.0608 228.283 83.4294C227.582 83.786 226.809 83.9643 225.966 83.9643Z" fill="#2C2C2C"/>
<path d="M253.812 83.9822C253.159 83.9822 252.547 83.9287 251.977 83.8217C251.406 83.7028 250.878 83.5245 250.391 83.2867C249.904 83.037 249.464 82.7339 249.072 82.3772L249.624 81.2538C250.266 81.7888 250.907 82.1692 251.549 82.3951C252.202 82.6209 252.963 82.7339 253.83 82.7339C254.84 82.7339 255.624 82.5377 256.182 82.1454C256.74 81.7412 257.019 81.1765 257.019 80.4513C257.019 80.0114 256.877 79.6607 256.592 79.3992C256.319 79.1257 255.938 78.9118 255.451 78.7572C254.976 78.5908 254.436 78.4362 253.83 78.2936C253.224 78.1628 252.648 78.0142 252.101 77.8477C251.555 77.6694 251.068 77.4495 250.64 77.1879C250.224 76.9264 249.898 76.5935 249.66 76.1893C249.422 75.7851 249.304 75.2798 249.304 74.6735C249.304 73.9483 249.494 73.3123 249.874 72.7654C250.254 72.2067 250.789 71.7727 251.478 71.4636C252.167 71.1545 252.98 71 253.919 71C254.501 71 255.059 71.0654 255.594 71.1962C256.128 71.315 256.622 71.4934 257.073 71.7311C257.536 71.9689 257.946 72.2602 258.302 72.6049L257.732 73.7284C257.15 73.2172 256.55 72.8427 255.932 72.6049C255.315 72.3672 254.644 72.2483 253.919 72.2483C252.933 72.2483 252.161 72.4563 251.602 72.8724C251.044 73.2885 250.765 73.8711 250.765 74.62C250.765 75.0837 250.89 75.4582 251.139 75.7435C251.388 76.0288 251.739 76.2606 252.19 76.439C252.642 76.6054 253.159 76.7599 253.741 76.9026C254.358 77.0453 254.952 77.1998 255.523 77.3663C256.093 77.5327 256.598 77.7407 257.037 77.9904C257.489 78.2282 257.845 78.5432 258.106 78.9355C258.368 79.316 258.498 79.8034 258.498 80.3978C258.498 81.123 258.308 81.7531 257.928 82.2881C257.548 82.823 257.008 83.2391 256.307 83.5364C255.606 83.8336 254.774 83.9822 253.812 83.9822Z" fill="#2C2C2C"/>
<path d="M266.233 83.8395V71.1427H271.294C272.601 71.1427 273.616 71.4577 274.341 72.0878C275.077 72.7179 275.446 73.5857 275.446 74.6914C275.446 75.7851 275.077 76.6529 274.341 77.2949C273.604 77.9369 272.589 78.2579 271.294 78.2579H267.694V83.8395H266.233ZM267.694 77.0453H271.169C272.108 77.0453 272.814 76.8432 273.29 76.439C273.765 76.0229 274.002 75.4403 274.002 74.6914C274.002 73.9424 273.765 73.3658 273.29 72.9616C272.814 72.5574 272.108 72.3553 271.169 72.3553H267.694V77.0453Z" fill="#2C2C2C"/>
<path d="M288.374 83.9822C287.186 83.9822 286.159 83.7206 285.292 83.1975C284.436 82.6744 283.771 81.9255 283.296 80.9506C282.833 79.9758 282.601 78.8226 282.601 77.4911C282.601 76.1477 282.833 74.9945 283.296 74.0316C283.759 73.0567 284.418 72.3077 285.274 71.7846C286.141 71.2615 287.175 71 288.374 71C289.562 71 290.59 71.2615 291.457 71.7846C292.324 72.3077 292.99 73.0567 293.453 74.0316C293.916 74.9945 294.148 76.1417 294.148 77.4733C294.148 78.8166 293.91 79.9758 293.435 80.9506C292.972 81.9255 292.307 82.6744 291.439 83.1975C290.584 83.7206 289.562 83.9822 288.374 83.9822ZM288.374 82.7339C289.717 82.7339 290.762 82.2821 291.511 81.3786C292.259 80.4632 292.633 79.1614 292.633 77.4733C292.633 75.7851 292.259 74.4952 291.511 73.6036C290.762 72.7 289.717 72.2483 288.374 72.2483C287.032 72.2483 285.981 72.7 285.22 73.6036C284.472 74.5071 284.098 75.797 284.098 77.4733C284.098 79.1495 284.472 80.4454 285.22 81.3608C285.981 82.2762 287.032 82.7339 288.374 82.7339Z" fill="#2C2C2C"/>
<path d="M302.175 83.8395V71.1427H307.218C308.584 71.1427 309.629 71.4458 310.354 72.0521C311.091 72.6584 311.459 73.5322 311.459 74.6735C311.459 75.7673 311.085 76.6292 310.336 77.2593C309.6 77.8775 308.56 78.1866 307.218 78.1866L308.537 77.9369C309 77.9369 309.398 78.0677 309.73 78.3292C310.063 78.5789 310.33 78.9831 310.532 79.5418L312.136 83.8395H310.586L309.018 79.6132C308.816 79.0782 308.537 78.7275 308.18 78.561C307.836 78.3827 307.372 78.2936 306.79 78.2936H303.618V83.8395H302.175ZM303.618 77.0809H307.093C308.079 77.0809 308.81 76.8788 309.285 76.4746C309.772 76.0704 310.016 75.476 310.016 74.6914C310.016 73.9067 309.778 73.3242 309.303 72.9438C308.828 72.5514 308.091 72.3553 307.093 72.3553H303.618V77.0809Z" fill="#2C2C2C"/>
<path d="M322.593 83.8395V72.3909H318.174V71.1427H328.491V72.3909H324.072V83.8395H322.593Z" fill="#2C2C2C"/>
<path d="M339.203 83.9822C338.55 83.9822 337.938 83.9287 337.368 83.8217C336.798 83.7028 336.269 83.5245 335.782 83.2867C335.295 83.037 334.855 82.7339 334.463 82.3772L335.016 81.2538C335.657 81.7888 336.299 82.1692 336.94 82.3951C337.593 82.6209 338.354 82.7339 339.221 82.7339C340.231 82.7339 341.015 82.5377 341.573 82.1454C342.132 81.7412 342.411 81.1765 342.411 80.4513C342.411 80.0114 342.268 79.6607 341.983 79.3992C341.71 79.1257 341.33 78.9118 340.843 78.7572C340.367 78.5908 339.827 78.4362 339.221 78.2936C338.615 78.1628 338.039 78.0142 337.493 77.8477C336.946 77.6694 336.459 77.4495 336.031 77.1879C335.616 76.9264 335.289 76.5935 335.051 76.1893C334.814 75.7851 334.695 75.2798 334.695 74.6735C334.695 73.9483 334.885 73.3123 335.265 72.7654C335.645 72.2067 336.18 71.7727 336.869 71.4636C337.558 71.1545 338.372 71 339.31 71C339.892 71 340.451 71.0654 340.985 71.1962C341.52 71.315 342.013 71.4934 342.464 71.7311C342.927 71.9689 343.337 72.2602 343.694 72.6049L343.123 73.7284C342.541 73.2172 341.941 72.8427 341.324 72.6049C340.706 72.3672 340.035 72.2483 339.31 72.2483C338.324 72.2483 337.552 72.4563 336.994 72.8724C336.435 73.2885 336.156 73.8711 336.156 74.62C336.156 75.0837 336.281 75.4582 336.53 75.7435C336.78 76.0288 337.13 76.2606 337.582 76.439C338.033 76.6054 338.55 76.7599 339.132 76.9026C339.75 77.0453 340.344 77.1998 340.914 77.3663C341.484 77.5327 341.989 77.7407 342.429 77.9904C342.88 78.2282 343.236 78.5432 343.498 78.9355C343.759 79.316 343.89 79.8034 343.89 80.3978C343.89 81.123 343.7 81.7531 343.32 82.2881C342.939 82.823 342.399 83.2391 341.698 83.5364C340.997 83.8336 340.165 83.9822 339.203 83.9822Z" fill="#2C2C2C"/>
<path d="M367.034 83.9822C365.822 83.9822 364.776 83.7206 363.897 83.1975C363.018 82.6744 362.341 81.9255 361.866 80.9506C361.391 79.9758 361.153 78.8166 361.153 77.4733C361.153 76.1299 361.391 74.9767 361.866 74.0137C362.341 73.0508 363.018 72.3077 363.897 71.7846C364.776 71.2615 365.822 71 367.034 71C367.901 71 368.703 71.1367 369.439 71.4102C370.176 71.6717 370.811 72.07 371.346 72.6049L370.794 73.7284C370.188 73.2053 369.588 72.8308 368.994 72.6049C368.4 72.3791 367.752 72.2661 367.051 72.2661C365.661 72.2661 364.58 72.7179 363.808 73.6214C363.048 74.5249 362.668 75.8089 362.668 77.4733C362.668 79.1495 363.048 80.4454 363.808 81.3608C364.569 82.2643 365.65 82.716 367.051 82.716C367.752 82.716 368.4 82.6031 368.994 82.3772C369.588 82.1513 370.188 81.7769 370.794 81.2538L371.346 82.3772C370.811 82.9122 370.176 83.3164 369.439 83.5899C368.703 83.8514 367.901 83.9822 367.034 83.9822Z" fill="#2C2C2C"/>
<path d="M379.115 83.8395H377.6L383.178 71.1427H384.461L390.039 83.8395H388.542L383.57 72.2126H384.105L379.115 83.8395ZM379.97 80.5761L380.487 79.3635H387.152L387.669 80.5761H379.97Z" fill="#2C2C2C"/>
<path d="M397.28 83.8395V71.1427H402.323C403.689 71.1427 404.734 71.4458 405.459 72.0521C406.196 72.6584 406.564 73.5322 406.564 74.6735C406.564 75.7673 406.19 76.6292 405.441 77.2593C404.705 77.8775 403.665 78.1866 402.323 78.1866L403.642 77.9369C404.105 77.9369 404.503 78.0677 404.835 78.3292C405.168 78.5789 405.435 78.9831 405.637 79.5418L407.241 83.8395H405.691L404.123 79.6132C403.921 79.0782 403.642 78.7275 403.285 78.561C402.941 78.3827 402.477 78.2936 401.895 78.2936H398.723V83.8395H397.28ZM398.723 77.0809H402.198C403.184 77.0809 403.915 76.8788 404.39 76.4746C404.877 76.0704 405.121 75.476 405.121 74.6914C405.121 73.9067 404.883 73.3242 404.408 72.9438C403.933 72.5514 403.196 72.3553 402.198 72.3553H398.723V77.0809Z" fill="#2C2C2C"/>
<path d="M414.981 83.8395V71.1427H423V72.3553H416.425V76.7778H422.644V78.0082H416.425V82.6269H423V83.8395H414.981Z" fill="#2C2C2C"/>
</svg>
