<svg width="128" height="29" viewBox="0 0 128 29" fill="none" xmlns="http://www.w3.org/2000/svg">
<path fill-rule="evenodd" clip-rule="evenodd" d="M123.314 0H102.811C100.466 0 98.5625 1.90312 98.5625 4.24805V24.752C98.5625 27.0969 100.466 29 102.811 29H123.314C125.659 29 127.562 27.0969 127.562 24.752V4.24805C127.562 1.90312 125.659 0 123.314 0ZM105.416 14.5566C105.416 18.7706 108.848 22.2031 113.062 22.2031C117.277 22.2031 120.709 18.7706 120.709 14.5566C120.709 10.3425 117.277 6.91016 113.062 6.91016C108.848 6.91016 105.416 10.3425 105.416 14.5566ZM122.408 6.91016C121.474 6.91016 120.709 6.14551 120.709 5.21094C120.709 4.27637 121.474 3.51172 122.408 3.51172C123.343 3.51172 124.107 4.27637 124.107 5.21094C124.107 6.14551 123.343 6.91016 122.408 6.91016ZM107.115 14.5566C107.115 11.2771 109.783 8.60938 113.062 8.60938C116.342 8.60938 119.01 11.2771 119.01 14.5566C119.01 17.8361 116.342 20.5039 113.062 20.5039C109.783 20.5039 107.115 17.8361 107.115 14.5566Z" fill="#2F2734"/>
<path fill-rule="evenodd" clip-rule="evenodd" d="M54.4375 0H72.5625C75.5662 0 78 2.43377 78 5.4375V23.5625C78 26.5662 75.5662 29 72.5625 29H54.4375C51.4338 29 49 26.5662 49 23.5625V5.4375C49 2.43377 51.4338 0 54.4375 0ZM69.1113 15.6176H71.825L72.1942 12.2335H69.1113L69.1169 10.334C69.1169 9.43054 69.2016 8.94758 70.4977 8.94758H72.4574V5.57689H69.0834C65.754 5.57689 64.5806 7.25443 64.5795 10.0797V12.2346H62.8216V15.6176H64.5795V25.6605H69.1113V15.6176Z" fill="#2F2734"/>
<path d="M26.7105 0H2.28947C1.68227 0 1.09993 0.241212 0.670571 0.670571C0.241212 1.09993 0 1.68227 0 2.28947L0 26.7105C0 27.3177 0.241212 27.9001 0.670571 28.3294C1.09993 28.7588 1.68227 29 2.28947 29H26.7105C27.3177 29 27.9001 28.7588 28.3294 28.3294C28.7588 27.9001 29 27.3177 29 26.7105V2.28947C29 1.68227 28.7588 1.09993 28.3294 0.670571C27.9001 0.241212 27.3177 0 26.7105 0V0ZM21.9637 10.6842C21.9637 10.8483 21.977 11.0124 21.977 11.1822C21.977 16.2705 18.1021 22.1411 11.0143 22.1411C8.91704 22.1495 6.86245 21.549 5.0998 20.4126C5.40545 20.4508 5.7133 20.4686 6.02132 20.466C7.75001 20.4661 9.42905 19.8879 10.7911 18.8233C9.98846 18.7996 9.21286 18.5281 8.57067 18.0462C7.92848 17.5642 7.45116 16.8953 7.20421 16.1313C7.44477 16.1789 7.68974 16.2006 7.93493 16.1961C8.27545 16.1991 8.61486 16.1567 8.94421 16.0702C8.07326 15.8899 7.291 15.4152 6.72911 14.7257C6.16721 14.0363 5.85998 13.1743 5.85914 12.2849V12.243C6.39262 12.5386 6.98943 12.7016 7.59915 12.718C6.78227 12.1722 6.20469 11.335 5.98447 10.3775C5.76426 9.42002 5.91802 8.4146 6.41434 7.56671C7.37957 8.75931 8.58558 9.73481 9.95356 10.4295C11.3215 11.1242 12.8207 11.5224 14.3531 11.5981C14.2908 11.3098 14.2607 11.0154 14.2634 10.7205C14.2628 9.94769 14.4947 9.19261 14.9289 8.55342C15.3632 7.91423 15.9798 7.42052 16.6985 7.13651C17.4172 6.85249 18.2047 6.79131 18.9586 6.96093C19.7126 7.13055 20.398 7.52312 20.9258 8.08757C21.7871 7.91819 22.6131 7.60265 23.3679 7.15461C23.083 8.04791 22.4802 8.80557 21.6737 9.28382C22.4387 9.18874 23.1861 8.98375 23.8926 8.6752C23.3777 9.45708 22.724 10.138 21.9637 10.6842Z" fill="#2F2734"/>
</svg>
